<?xml version="1.0" encoding="UTF-8" standalone="no"?>
<!DOCTYPE svg PUBLIC "-//W3C//DTD SVG 1.1//EN" "http://www.w3.org/Graphics/SVG/1.1/DTD/svg11.dtd">
<svg version="1.1" xmlns="http://www.w3.org/2000/svg" xmlns:xlink="http://www.w3.org/1999/xlink" preserveAspectRatio="xMidYMid meet" viewBox="300 200 400 50" width="2000" height="2000"><defs><path d="M479.86 259.44C479.86 341.25 413.44 407.68 331.62 407.68C249.8 407.68 183.38 341.25 183.38 259.44C183.38 177.62 249.8 111.2 331.62 111.2C413.44 111.2 479.86 177.62 479.86 259.44Z" id="c1kEubySsH"></path><path d="" id="bWVJAKYgG"></path><path d="M457.68 259.44C457.68 330.18 401.19 387.61 331.62 387.61C262.05 387.61 205.56 330.18 205.56 259.44C205.56 188.7 262.05 131.27 331.62 131.27C401.19 131.27 457.68 188.7 457.68 259.44Z" id="h1mcGyQOy0"></path><path d="M435.14 259.44C435.14 317.74 388.75 365.07 331.62 365.07C274.48 365.07 228.1 317.74 228.1 259.44C228.1 201.14 274.48 153.8 331.62 153.8C388.75 153.8 435.14 201.14 435.14 259.44Z" id="bXsKWwOlB"></path><path d="" id="cb7MQnBte"></path></defs><g><g><g><use xlink:href="#c1kEubySsH" opacity="1" fill="#8bd796" fill-opacity="1"></use></g><g><g><use xlink:href="#bWVJAKYgG" opacity="1" fill-opacity="0" stroke="#000000" stroke-width="1" stroke-opacity="1"></use></g></g><g><use xlink:href="#h1mcGyQOy0" opacity="1" fill="#88743b" fill-opacity="1"></use></g><g><use xlink:href="#bXsKWwOlB" opacity="1" fill="#885044" fill-opacity="1"></use></g><g><g><use xlink:href="#cb7MQnBte" opacity="1" fill-opacity="0" stroke="#000000" stroke-width="1" stroke-opacity="1"></use></g></g></g></g></svg>